<?xml version="1.0" encoding="UTF-8" standalone="no"?>
<svg
   xmlns:dc="http://purl.org/dc/elements/1.1/"
   xmlns:cc="http://creativecommons.org/ns#"
   xmlns:rdf="http://www.w3.org/1999/02/22-rdf-syntax-ns#"
   xmlns:svg="http://www.w3.org/2000/svg"
   xmlns="http://www.w3.org/2000/svg"
   width="210mm"
   height="210mm"
   viewBox="0 0 744.09449 744.09448"
   id="svg3344"
   version="1.1">
  <defs
     id="defs3346" />
  <metadata
     id="metadata3349">
    <rdf:RDF>
      <cc:Work
         rdf:about="">
        <dc:format>image/svg+xml</dc:format>
        <dc:type
           rdf:resource="http://purl.org/dc/dcmitype/StillImage" />
        <dc:title></dc:title>
      </cc:Work>
    </rdf:RDF>
  </metadata>
  <circle
     r="282.00381"
     cy="372.04724"
     cx="372.04724"
     id="path4361"
     style="fill:#5a99ed;fill-opacity:1;stroke:#87cdde;stroke-opacity:1" />
  <path
     id="path4355"
     d="M 314.41072,657.29859 C 223.01793,643.86738 148.1346,592.38662 109.12978,516.17164 91.103236,480.94966 76.727291,429.74767 76.727291,400.77469 c 0,-14.07644 -3.715806,-15.89603 -10.158923,-4.97504 -10.744566,18.20909 -11.130353,10.26994 -2.041971,-41.99674 2.606814,-14.99785 5.43425,-29.77772 6.280171,-32.84595 1.976236,-7.15302 -4.019607,-7.59689 -8.377475,-0.61982 -4.725048,7.56752 -8.067946,5.95855 -6.442465,-3.09745 3.012625,-16.78075 21.172917,-67.70611 28.244229,-79.19736 6.526034,-10.60623 7.368949,-14.19978 7.368949,-31.37537 0,-11.30007 2.075379,-27.51068 4.971169,-38.83225 5.314495,-20.78162 17.191005,-44.57171 22.249665,-44.57171 1.69322,0 5.24249,5.79832 7.88583,12.88551 2.64335,7.0872 9.67748,18.30335 15.62977,24.92259 l 10.82035,12.03713 39.25156,-0.22242 39.25157,-0.22413 12.39496,-9.07704 c 14.25856,-10.44309 34.51816,-18.82565 50.73453,-20.99108 l 11.23843,-1.50159 -11.90423,12.80841 c -12.1332,13.0555 -23.97311,34.68384 -24.01648,43.86965 -0.032,7.10777 10.93342,21.32671 20.4452,26.51092 5.97012,3.25341 13.74639,4.33887 31.09157,4.33887 28.16727,0 33.86353,2.34787 31.7171,13.08003 -2.07637,10.38739 -6.78796,15.1439 -29.98132,30.28356 -10.90808,7.11863 -22.36892,15.71372 -25.46894,19.09958 -5.4377,5.937 -5.52993,6.78206 -2.59625,23.89403 3.75247,21.87534 2.1524,24.28443 -12.64904,19.06252 -13.15654,-4.64166 -20.7099,-2.90774 -28.70344,6.59127 -12.54672,14.91177 -6.51715,35.96383 14.65593,51.16905 26.87784,19.30286 46.53029,22.26747 75.09921,11.33365 36.14869,-13.83529 51.08498,-13.70886 72.72977,0.61445 16.58683,10.97666 15.57201,25.66322 -1.7735,25.66322 -9.80384,0 -15.52816,2.70698 -38.70851,18.29501 -20.66063,13.89429 -36.19907,18.8871 -64.36035,20.67643 -13.67232,0.86949 -21.69072,2.41693 -21.69072,4.18432 0,2.80753 24.75973,18.89655 43.38144,28.18622 37.98475,18.94966 85.90286,20.65784 117.85205,4.19839 15.20759,-7.83372 37.56193,-27.32977 51.01509,-44.49318 13.09821,-16.71188 18.29142,-21.57943 18.29142,-17.15049 0,0.82623 -1.71457,8.11722 -3.80912,16.20159 -4.52058,17.44091 -2.9261,22.01409 5.05896,14.51111 14.63684,-13.74942 26.0176,-57.80398 26.0176,-100.70999 0,-13.68547 1.00858,-23.22421 2.45729,-23.22421 1.35086,0 4.97536,3.88967 8.05608,8.64514 3.08071,4.75547 6.46447,8.65991 7.51986,8.67592 6.82753,0.11672 12.05216,-51.69338 8.9374,-88.60491 -1.10992,-13.14788 -1.61313,-24.3093 -1.11968,-24.80275 0.49344,-0.49345 4.95615,2.66733 9.9161,7.02251 4.96179,4.35518 9.55177,7.38684 10.20241,6.7362 0.65064,-0.65064 -0.48421,-5.90656 -2.52047,-11.68043 -15.75004,-44.63708 -54.15427,-82.15887 -101.07679,-98.75376 -10.56307,-3.7351 -19.20809,-7.57774 -19.21136,-8.53756 -0.003,-1.99276 12.35498,-4.56464 32.21988,-6.7019 19.26389,-2.07257 18.06504,-7.12357 -3.71904,-15.67975 -9.5448,-3.74973 -24.04648,-8.77757 -32.22616,-11.17624 l -14.87432,-4.35838 14.87432,-0.77133 c 9.09477,-0.47188 24.02497,1.32895 38.42272,4.63278 55.8254,12.81386 80.48411,28.55017 105.98063,67.63545 12.0095,18.40949 16.65362,19.08104 12.78036,1.84465 -5.8416,-25.99937 3.98202,-14.87886 17.77974,20.12325 5.24348,13.30478 15.31305,59.36421 18.31416,83.77815 2.36917,19.27649 3.61498,22.53299 8.32161,21.7558 3.66038,-0.6044 4.05801,1.80665 3.36137,20.38596 -1.10735,29.56188 -9.57396,80.97733 -18.01472,109.38616 -31.92466,107.46654 -102.40659,180.65085 -199.30748,206.95267 -45.20775,12.2715 -100.85503,16.51521 -140.38427,10.70527 z"
     style="fill:#f48e06" />
</svg>
