<?xml version="1.0" encoding="UTF-8" standalone="no"?>
<svg
   xmlns:dc="http://purl.org/dc/elements/1.1/"
   xmlns:cc="http://creativecommons.org/ns#"
   xmlns:rdf="http://www.w3.org/1999/02/22-rdf-syntax-ns#"
   xmlns:svg="http://www.w3.org/2000/svg"
   xmlns="http://www.w3.org/2000/svg"
   width="210mm"
   height="210mm"
   viewBox="0 0 744.09449 744.09448"
   id="svg3344"
   version="1.1">
  <defs
     id="defs3346" />
  <metadata
     id="metadata3349">
    <rdf:RDF>
      <cc:Work
         rdf:about="">
        <dc:format>image/svg+xml</dc:format>
        <dc:type
           rdf:resource="http://purl.org/dc/dcmitype/StillImage" />
        <dc:title></dc:title>
      </cc:Work>
    </rdf:RDF>
  </metadata>
  <circle
     r="282.00381"
     cy="372.04724"
     cx="372.04724"
     id="path4361"
     style="fill:#f4f4f2;fill-opacity:1;stroke:none;stroke-opacity:1" />
  <path
     id="path4410"
     d="M 582.8125 363.73828 L 159.62109 373.25586 L 208.01758 601.14648 A 282.00381 282.00381 0 0 0 372.04688 654.05078 A 282.00381 282.00381 0 0 0 620.64648 504.93555 L 582.8125 363.73828 z "
     style="fill:#d8dade;fill-rule:evenodd;stroke:none;stroke-width:1px;stroke-linecap:butt;stroke-linejoin:miter;stroke-opacity:1;fill-opacity:1" />
  <path
     id="path4404"
     d="m 362.05479,581.79923 c -6.49121,-0.76588 -10.46555,-2.33635 -13.46999,-5.32368 -2.15817,-2.14757 -2.92789,-3.67448 -3.85707,-7.65055 -0.93344,-3.98711 -1.67976,-6.19167 -2.97042,-8.77556 -3.71183,-7.42903 -9.87657,-11.63141 -20.51223,-13.98878 -1.44162,-0.31976 -4.87769,-1.00272 -7.6376,-1.51792 -9.24507,-1.72389 -13.0341,-2.93035 -16.76572,-5.34302 -5.41564,-3.50648 -7.22298,-7.63973 -5.35093,-12.24595 1.23445,-3.04016 3.04706,-5.35394 9.50653,-12.14102 5.10435,-5.36418 7.21575,-7.99482 8.42773,-10.50749 1.55431,-3.22347 1.63699,-5.46935 0.29342,-8.11813 -2.31126,-4.56188 -10.31283,-9.08167 -26.88894,-15.18603 -1.88149,-0.69224 -12.60247,-4.31045 -23.82498,-8.03992 -25.42394,-8.44832 -32.04731,-10.91846 -39.19586,-14.61692 -13.71395,-7.0955 -13.85697,-11.93814 -0.5741,-19.31595 2.60044,-1.4439 4.73736,-2.48444 14.12118,-6.87901 6.39105,-2.993 10.16245,-5.00314 12.94,-6.89765 4.64989,-3.17246 6.41753,-6.07905 5.31145,-8.72823 -0.68892,-1.64749 -1.40241,-2.28101 -3.72066,-3.30229 -7.44438,-3.28161 -14.81413,-5.4858 -30.89955,-9.24289 -19.97205,-4.663 -25.62583,-6.14077 -32.39804,-8.46692 -8.67948,-2.98285 -14.64369,-6.21833 -18.78782,-10.1934 -3.01506,-2.89174 -4.93935,-5.95997 -5.87704,-9.3684 -0.56438,-2.05186 -0.67786,-6.60629 -0.22768,-9.19784 1.28521,-7.41889 6.20901,-16.88102 14.02934,-26.95954 2.24113,-2.88937 159.29462,-163.73669 162.45214,-166.37732 6.95082,-5.81137 15.84292,-9.63225 25.26235,-10.85492 3.51474,-0.45702 10.26993,-0.4556 13.76129,0.009 9.7575,1.27878 18.88219,5.12736 26.39139,11.13157 1.29916,1.03849 31.73262,31.97778 84.24219,85.63977 45.2143,46.20658 83.20456,85.06859 84.42504,86.35864 7.44396,7.87986 12.2325,15.85341 13.91628,23.17202 0.5637,2.46454 0.67426,7.63746 0.20501,9.8201 -3.01785,14.04879 -17.42881,25.42868 -47.08715,37.1915 -7.09114,2.81281 -15.6962,5.82326 -33.5442,11.73433 -28.84513,9.55337 -36.13057,12.26624 -44.22987,16.46379 -2.98207,1.54581 -3.2516,1.74132 -4.09412,2.96404 -0.77184,1.12267 -0.9143,1.51884 -0.9951,2.78533 -0.077,1.24082 0,1.66531 0.49132,2.67262 1.5881,3.24067 5.61536,6.18002 16.79535,12.25431 13.55716,7.36723 18.51444,11.05709 20.64724,15.3727 1.3704,2.77233 1.32362,4.34825 -0.2477,8.45178 -3.7344,9.75551 -9.6432,15.43275 -19.67236,18.90101 -2.21345,0.76594 -4.00166,1.23082 -16.68705,4.33306 -11.67998,2.8559 -19.18118,5.94509 -27.12922,11.17131 -6.20116,4.07776 -14.10706,11.21614 -15.40065,13.9043 -1.86687,3.8843 0.026,6.30733 7.87575,10.10389 4.54173,2.19842 6.57658,3.42995 7.99464,4.84242 1.96273,1.95662 2.22852,3.52962 1.00378,5.93602 -0.86327,1.69841 -2.02635,2.83628 -4.83942,4.73761 -13.67198,9.22834 -33.43151,16.68643 -49.98461,18.86446 -2.68124,0.35743 -11.45002,0.63733 -13.22334,0.42878 z m 9.88083,-130.25818 c 2.57918,-0.59848 7.87226,-4.94036 8.69649,-7.13389 0.47447,-1.26506 0.23814,-2.17498 -0.72932,-2.80906 -0.31681,-0.2074 -2.48562,-0.72891 -4.8224,-1.15977 -30.28249,-5.58281 -71.76411,-14.52324 -78.25777,-16.86503 -2.51539,-0.90722 -4.75943,-0.6025 -4.75943,0.6471 0,2.0114 10.14955,7.5122 24.39469,13.22212 18.20829,7.29863 36.4539,12.68075 47.9911,14.15653 1.39697,0.17865 6.6425,0.13801 7.48664,-0.0536 z m 4.8543,-168.40708 c 18.40721,-11.62657 20.48459,-12.88119 20.96366,-12.66261 0.29277,0.13357 5.97419,3.11927 12.6252,6.63571 6.6511,3.51581 12.23887,6.39267 12.41535,6.39267 0.21901,0 0.40185,-0.48716 0.5741,-1.53863 3.81029,-23.15608 5.67717,-34.08047 5.85325,-34.25575 0.13861,-0.1384 5.72222,4.18609 15.33088,11.87433 8.6327,6.90721 15.27092,12.06166 15.47933,12.0213 0.52519,-0.10141 1.35019,-1.85452 1.78889,-3.80217 0.29274,-1.29746 0.35227,-2.36048 0.25872,-4.6737 -0.16798,-4.16716 -1.09602,-7.32576 -2.97255,-10.11044 -0.99935,-1.48241 -62.96768,-64.62057 -65.92321,-67.16776 -4.30784,-3.71252 -9.81916,-6.35551 -16.08106,-7.71369 -2.09226,-0.45337 -3.03845,-0.51904 -7.52278,-0.51904 -4.44818,0 -5.43903,0.0692 -7.44411,0.5057 -4.8628,1.06107 -9.73411,3.17341 -13.59969,5.89836 -3.28298,2.31206 -47.96243,47.13124 -62.62535,62.82086 -6.05778,6.48095 -7.74392,8.78671 -9.33863,12.77117 -1.60064,3.9949 -2.1114,8.77475 -1.27151,11.90147 0.79735,2.97297 2.81307,5.62099 5.18247,6.80919 2.63558,1.3208 2.3397,1.30325 21.77026,1.30325 l 17.84604,0 0.53353,-0.85509 c 0.29343,-0.47041 5.22887,-8.9856 10.96949,-18.9229 5.74095,-9.93769 10.52598,-18.06833 10.63353,-18.06833 0.24665,0 -0.42951,-2.63238 7.1762,27.98559 3.58916,14.45183 6.62055,26.27609 6.73605,26.27609 0.11482,0 9.4029,-5.80752 20.64194,-12.90558 z M 256.04055,532.5651 c -3.19746,-0.7251 -6.63461,-2.81938 -9.22931,-5.61979 -3.88984,-4.20115 -4.73144,-8.18373 -2.6247,-12.43411 4.54944,-9.18132 22.84779,-15.20236 36.13513,-11.89045 2.9693,0.74019 6.12683,2.40829 8.16806,4.31458 1.07213,1.00149 1.74992,1.81332 1.74992,2.09818 0,0.66619 -2.22196,5.01341 -3.65027,7.14006 -1.84191,2.74327 -3.55782,4.75861 -6.30285,7.398 -3.11712,2.99958 -5.809,4.91357 -9.31297,6.62695 -4.12414,2.01581 -6.1217,2.53374 -10.14462,2.62424 -2.33466,0.0532 -3.74198,-0.0302 -4.78839,-0.25766 z m 254.45203,-4.9093 c -3.04375,-0.59741 -5.89235,-2.01816 -7.95915,-3.96766 -5.48532,-5.17354 -4.81341,-12.59639 1.76317,-19.50893 l 1.34594,-1.41373 1.10566,0.16561 c 1.86468,0.27854 6.32782,1.85623 8.67948,3.06664 4.05695,2.09172 7.23361,4.84312 9.23231,7.99852 2.70676,4.27384 2.93215,8.99482 0.51456,10.82703 -1.22899,0.93138 -4.31635,2.12865 -6.83386,2.64934 -2.17944,0.45087 -6.02376,0.54073 -7.84811,0.18318 z m 30.07625,-33.7322 c -13.71026,-0.65008 -25.32188,-3.54103 -27.03992,-6.73121 -0.35562,-0.66208 -0.35509,-0.78251 0.0314,-1.94133 2.9045,-8.86021 11.65822,-15.51938 23.09925,-17.57158 3.75006,-0.67323 9.81281,-0.67788 13.49206,-0.011 6.66613,1.20918 12.1119,3.896 16.21559,7.99694 3.17888,3.18092 5.86411,7.86299 5.52534,9.64056 -0.71306,3.72004 -5.46155,6.48306 -13.41733,7.80771 -4.61803,0.76758 -11.86464,1.09503 -17.89971,0.80889 z"
     style="fill:#000000" />
</svg>
